<svg xmlns="http://www.w3.org/2000/svg" xmlns:svg="http://www.w3.org/2000/svg" id="svg121" width="16" height="16" version="1.1" viewBox="0 0 16 16"><filter id="a" width="1" height="1" x="0" y="0"><feColorMatrix id="feColorMatrix2" in="SourceGraphic" type="matrix" values="0 0 0 0 1 0 0 0 0 1 0 0 0 0 1 0 0 0 1 0"/></filter><mask id="b"><g id="g7" filter="url(#a)"><path id="path5" fill-opacity=".3" d="m 0 0 h 16 v 16 h -16 z"/></g></mask><clipPath id="c"><path id="path10" d="m 0 0 h 1600 v 1200 h -1600 z"/></clipPath><mask id="d"><g id="g15" filter="url(#a)"><path id="path13" fill-opacity=".05" d="m 0 0 h 16 v 16 h -16 z"/></g></mask><clipPath id="e"><path id="path18" d="m 0 0 h 1600 v 1200 h -1600 z"/></clipPath><mask id="f"><g id="g23" filter="url(#a)"><path id="path21" fill-opacity=".05" d="m 0 0 h 16 v 16 h -16 z"/></g></mask><clipPath id="g"><path id="path26" d="m 0 0 h 1600 v 1200 h -1600 z"/></clipPath><mask id="h"><g id="g31" filter="url(#a)"><path id="path29" fill-opacity=".05" d="m 0 0 h 16 v 16 h -16 z"/></g></mask><clipPath id="i"><path id="path34" d="m 0 0 h 1600 v 1200 h -1600 z"/></clipPath><mask id="j"><g id="g39" filter="url(#a)"><path id="path37" fill-opacity=".05" d="m 0 0 h 16 v 16 h -16 z"/></g></mask><clipPath id="k"><path id="path42" d="m 0 0 h 1600 v 1200 h -1600 z"/></clipPath><mask id="l"><g id="g47" filter="url(#a)"><path id="path45" fill-opacity=".05" d="m 0 0 h 16 v 16 h -16 z"/></g></mask><clipPath id="m"><path id="path50" d="m 0 0 h 1600 v 1200 h -1600 z"/></clipPath><mask id="n"><g id="g55" filter="url(#a)"><path id="path53" fill-opacity=".05" d="m 0 0 h 16 v 16 h -16 z"/></g></mask><clipPath id="o"><path id="path58" d="m 0 0 h 1600 v 1200 h -1600 z"/></clipPath><mask id="p"><g id="g63" filter="url(#a)"><path id="path61" fill-opacity=".3" d="m 0 0 h 16 v 16 h -16 z"/></g></mask><clipPath id="q"><path id="path66" d="m 0 0 h 1600 v 1200 h -1600 z"/></clipPath><mask id="r"><g id="g71" filter="url(#a)"><path id="path69" fill-opacity=".5" d="m 0 0 h 16 v 16 h -16 z"/></g></mask><clipPath id="s"><path id="path74" d="m 0 0 h 1600 v 1200 h -1600 z"/></clipPath><g id="g79" clip-path="url(#c)" mask="url(#b)" transform="matrix(1 0 0 1 -620 -300)"><path id="path77" fill="#2e3436" d="m 562.460938 212.058594 h 10.449218 c -1.183594 0.492187 -1.296875 2.460937 0 3 h -10.449218 z m 0 0"/></g><g id="g87" fill="#2e3436" transform="matrix(0.99991007,0,0,0.9985597,0.50067447,-0.49797595)"><path id="path81" d="M 7.5,3 C 3.921875,3 1,5.921875 1,9.5 c 0,1.6875 0.65625,3.222656 1.71875,4.382812 L 2.300781,14.28125 c -0.261719,0.25 -0.367187,0.621094 -0.28125,0.96875 0.085938,0.351562 0.355469,0.628906 0.703125,0.722656 0.347656,0.09766 0.71875,0 0.976563,-0.253906 L 4.289062,15.140625 C 5.238281,15.683594 6.332031,16 7.5,16 c 1.183594,0 2.296875,-0.324219 3.253906,-0.886719 l 0.507813,0.558594 c 0.234375,0.277344 0.601562,0.402344 0.960937,0.328125 0.355469,-0.07422 0.644532,-0.335938 0.753906,-0.683594 0.105469,-0.347656 0.01563,-0.726562 -0.238281,-0.988281 L 12.308594,13.851562 C 13.355469,12.695312 14,11.171875 14,9.5 14,5.921875 11.078125,3 7.5,3 Z m 0,2 C 9.996094,5 12,7.003906 12,9.5 12,11.996094 9.996094,14 7.5,14 5.003906,14 3,11.996094 3,9.5 3,7.003906 5.003906,5 7.5,5 Z M 7.492188,5.992188 C 7.214844,5.996094 6.996094,6.222656 7,6.5 V 9 H 5.5 C 5.320312,8.996094 5.152344,9.09375 5.0625,9.246094 4.96875,9.402344 4.96875,9.597656 5.0625,9.753906 5.152344,9.90625 5.320312,10.003906 5.5,10 h 2 C 7.777344,10 8,9.777344 8,9.5 v -3 C 8.003906,6.363281 7.949219,6.234375 7.855469,6.136719 7.757812,6.042969 7.628906,5.988281 7.492188,5.992188 Z m 0,0"/><path id="path83" d="M 2.109375,1.421875 C 0.964844,2.1875 0.652344,3.742188 1.421875,4.890625 l 4.15625,-2.78125 C 4.8125,0.964844 3.257812,0.652344 2.109375,1.421875 Z m 0,0"/><path id="path85" d="m 12.890625,1.421875 c 1.144531,0.765625 1.457031,2.320313 0.6875,3.46875 l -4.15625,-2.78125 c 0.765625,-1.144531 2.320313,-1.457031 3.46875,-0.6875 z m 0,0"/></g><g id="g91" clip-path="url(#e)" mask="url(#d)" transform="matrix(1 0 0 1 -620 -300)"><path id="path89" fill="#2e3436" fill-rule="evenodd" d="m 16 748 h 1 v 1 h -1 z m 0 0"/></g><g id="g95" clip-path="url(#g)" mask="url(#f)" transform="matrix(1 0 0 1 -620 -300)"><path id="path93" fill="#2e3436" fill-rule="evenodd" d="m 17 747 h 1 v 1 h -1 z m 0 0"/></g><g id="g99" clip-path="url(#i)" mask="url(#h)" transform="matrix(1 0 0 1 -620 -300)"><path id="path97" fill="#2e3436" fill-rule="evenodd" d="m 18 750 h 1 v 1 h -1 z m 0 0"/></g><g id="g103" clip-path="url(#k)" mask="url(#j)" transform="matrix(1 0 0 1 -620 -300)"><path id="path101" fill="#2e3436" fill-rule="evenodd" d="m 16 750 h 1 v 1 h -1 z m 0 0"/></g><g id="g107" clip-path="url(#m)" mask="url(#l)" transform="matrix(1 0 0 1 -620 -300)"><path id="path105" fill="#2e3436" fill-rule="evenodd" d="m 17 751 h 1 v 1 h -1 z m 0 0"/></g><g id="g111" clip-path="url(#o)" mask="url(#n)" transform="matrix(1 0 0 1 -620 -300)"><path id="path109" fill="#2e3436" fill-rule="evenodd" d="m 19 751 h 1 v 1 h -1 z m 0 0"/></g><g id="g115" clip-path="url(#q)" mask="url(#p)" transform="matrix(1 0 0 1 -620 -300)"><path id="path113" fill="#2e3436" d="m 136 776 v 7 h 7 v -7 z m 0 0"/></g><g id="g119" clip-path="url(#s)" mask="url(#r)" transform="matrix(1 0 0 1 -620 -300)"><path id="path117" fill="#2e3436" d="m 219 758 h 3 v 12 h -3 z m 0 0"/></g></svg>