<svg xmlns="http://www.w3.org/2000/svg" xmlns:svg="http://www.w3.org/2000/svg" id="svg115" width="16" height="16" version="1.1" viewBox="0 0 16 16"><filter id="a" width="1" height="1" x="0" y="0"><feColorMatrix id="feColorMatrix2" in="SourceGraphic" type="matrix" values="0 0 0 0 1 0 0 0 0 1 0 0 0 0 1 0 0 0 1 0"/></filter><mask id="b"><g id="g7" filter="url(#a)"><path id="path5" fill-opacity=".3" d="m 0 0 h 16 v 16 h -16 z"/></g></mask><clipPath id="c"><path id="path10" d="m 0 0 h 1600 v 1200 h -1600 z"/></clipPath><mask id="d"><g id="g15" filter="url(#a)"><path id="path13" fill-opacity=".05" d="m 0 0 h 16 v 16 h -16 z"/></g></mask><clipPath id="e"><path id="path18" d="m 0 0 h 1600 v 1200 h -1600 z"/></clipPath><mask id="f"><g id="g23" filter="url(#a)"><path id="path21" fill-opacity=".05" d="m 0 0 h 16 v 16 h -16 z"/></g></mask><clipPath id="g"><path id="path26" d="m 0 0 h 1600 v 1200 h -1600 z"/></clipPath><mask id="h"><g id="g31" filter="url(#a)"><path id="path29" fill-opacity=".05" d="m 0 0 h 16 v 16 h -16 z"/></g></mask><clipPath id="i"><path id="path34" d="m 0 0 h 1600 v 1200 h -1600 z"/></clipPath><mask id="j"><g id="g39" filter="url(#a)"><path id="path37" fill-opacity=".05" d="m 0 0 h 16 v 16 h -16 z"/></g></mask><clipPath id="k"><path id="path42" d="m 0 0 h 1600 v 1200 h -1600 z"/></clipPath><mask id="l"><g id="g47" filter="url(#a)"><path id="path45" fill-opacity=".05" d="m 0 0 h 16 v 16 h -16 z"/></g></mask><clipPath id="m"><path id="path50" d="m 0 0 h 1600 v 1200 h -1600 z"/></clipPath><mask id="n"><g id="g55" filter="url(#a)"><path id="path53" fill-opacity=".05" d="m 0 0 h 16 v 16 h -16 z"/></g></mask><clipPath id="o"><path id="path58" d="m 0 0 h 1600 v 1200 h -1600 z"/></clipPath><mask id="p"><g id="g63" filter="url(#a)"><path id="path61" fill-opacity=".3" d="m 0 0 h 16 v 16 h -16 z"/></g></mask><clipPath id="q"><path id="path66" d="m 0 0 h 1600 v 1200 h -1600 z"/></clipPath><mask id="r"><g id="g71" filter="url(#a)"><path id="path69" fill-opacity=".5" d="m 0 0 h 16 v 16 h -16 z"/></g></mask><clipPath id="s"><path id="path74" d="m 0 0 h 1600 v 1200 h -1600 z"/></clipPath><g id="g79" clip-path="url(#c)" mask="url(#b)" transform="matrix(1 0 0 1 -680 -40)"><path id="path77" fill="#2e3436" d="m 562.460938 212.058594 h 10.449218 c -1.183594 0.492187 -1.296875 2.460937 0 3 h -10.449218 z m 0 0"/></g><path id="path81" fill="#2e3436" d="M 8,0.5 C 3.871094,0.5 0.5,3.871094 0.5,8 c 0,4.128906 3.371094,7.5 7.5,7.5 4.128906,0 7.5,-3.371094 7.5,-7.5 C 15.5,3.871094 12.128906,0.5 8,0.5 Z m 0,2 c 0.257812,0 0.503906,0.023438 0.75,0.054688 0.191406,0.261718 0.382812,0.59375 0.550781,1.027343 C 9.40625,3.859375 9.503906,4.167969 9.589844,4.5 H 6.410156 C 6.496094,4.167969 6.59375,3.859375 6.699219,3.582031 6.867188,3.148438 7.058594,2.816406 7.25,2.554688 7.496094,2.523438 7.742188,2.5 8,2.5 Z M 5.914062,2.90625 C 5.863281,3.015625 5.808594,3.109375 5.765625,3.222656 5.617188,3.609375 5.496094,4.042969 5.386719,4.5 H 3.769531 C 4.339844,3.808594 5.066406,3.253906 5.914062,2.90625 Z m 4.171876,0 C 10.933594,3.253906 11.660156,3.808594 12.230469,4.5 H 10.613281 C 10.503906,4.042969 10.382812,3.609375 10.234375,3.222656 10.191406,3.109375 10.136719,3.015625 10.085938,2.90625 Z M 3.105469,5.5 H 5.1875 C 5.089844,6.128906 5.039062,6.800781 5.019531,7.5 H 2.539062 c 0.0625,-0.714844 0.253907,-1.390625 0.566407,-2 z m 3.09375,0 h 3.601562 c 0.101563,0.617188 0.15625,1.292969 0.179688,2 H 6.019531 C 6.042969,6.792969 6.097656,6.117188 6.199219,5.5 Z m 4.613281,0 h 2.082031 c 0.3125,0.609375 0.503907,1.285156 0.566407,2 H 10.980469 C 10.960938,6.800781 10.910156,6.128906 10.8125,5.5 Z m -8.273438,3 h 2.480469 c 0.019531,0.699219 0.070313,1.375 0.167969,2 H 3.105469 C 2.792969,9.890625 2.601562,9.214844 2.539062,8.5 Z m 3.480469,0 h 3.960938 c -0.02344,0.707031 -0.07813,1.382812 -0.179688,2 H 6.199219 C 6.097656,9.882812 6.042969,9.207031 6.019531,8.5 Z m 4.960938,0 h 2.480469 c -0.0625,0.714844 -0.253907,1.390625 -0.566407,2 H 10.8125 c 0.09766,-0.625 0.148438,-1.300781 0.167969,-2 z m -7.210938,3 h 1.617188 c 0.109375,0.457031 0.230469,0.890625 0.378906,1.277344 0.042969,0.113281 0.097656,0.207031 0.148437,0.316406 C 5.066406,12.746094 4.339844,12.191406 3.769531,11.5 Z m 2.640625,0 H 9.589844 C 9.503906,11.832031 9.40625,12.140625 9.300781,12.417969 9.132812,12.851562 8.941406,13.183594 8.75,13.441406 8.503906,13.476562 8.253906,13.5 8,13.5 7.746094,13.5 7.496094,13.476562 7.25,13.445312 7.058594,13.183594 6.867188,12.851562 6.699219,12.417969 6.59375,12.140625 6.496094,11.832031 6.410156,11.5 Z m 4.203125,0 h 1.617188 c -0.570313,0.691406 -1.296875,1.246094 -2.144531,1.59375 0.05078,-0.109375 0.105468,-0.203125 0.148437,-0.316406 0.148437,-0.386719 0.269531,-0.820313 0.378906,-1.277344 z m 0,0"/><g id="g85" clip-path="url(#e)" mask="url(#d)" transform="matrix(1 0 0 1 -680 -40)"><path id="path83" fill="#2e3436" fill-rule="evenodd" d="m 16 748 h 1 v 1 h -1 z m 0 0"/></g><g id="g89" clip-path="url(#g)" mask="url(#f)" transform="matrix(1 0 0 1 -680 -40)"><path id="path87" fill="#2e3436" fill-rule="evenodd" d="m 17 747 h 1 v 1 h -1 z m 0 0"/></g><g id="g93" clip-path="url(#i)" mask="url(#h)" transform="matrix(1 0 0 1 -680 -40)"><path id="path91" fill="#2e3436" fill-rule="evenodd" d="m 18 750 h 1 v 1 h -1 z m 0 0"/></g><g id="g97" clip-path="url(#k)" mask="url(#j)" transform="matrix(1 0 0 1 -680 -40)"><path id="path95" fill="#2e3436" fill-rule="evenodd" d="m 16 750 h 1 v 1 h -1 z m 0 0"/></g><g id="g101" clip-path="url(#m)" mask="url(#l)" transform="matrix(1 0 0 1 -680 -40)"><path id="path99" fill="#2e3436" fill-rule="evenodd" d="m 17 751 h 1 v 1 h -1 z m 0 0"/></g><g id="g105" clip-path="url(#o)" mask="url(#n)" transform="matrix(1 0 0 1 -680 -40)"><path id="path103" fill="#2e3436" fill-rule="evenodd" d="m 19 751 h 1 v 1 h -1 z m 0 0"/></g><g id="g109" clip-path="url(#q)" mask="url(#p)" transform="matrix(1 0 0 1 -680 -40)"><path id="path107" fill="#2e3436" d="m 136 776 v 7 h 7 v -7 z m 0 0"/></g><g id="g113" clip-path="url(#s)" mask="url(#r)" transform="matrix(1 0 0 1 -680 -40)"><path id="path111" fill="#2e3436" d="m 219 758 h 3 v 12 h -3 z m 0 0"/></g></svg>